<?xml version="1.0" standalone="no"?><!DOCTYPE svg PUBLIC "-//W3C//DTD SVG 1.1//EN" "http://www.w3.org/Graphics/SVG/1.1/DTD/svg11.dtd"><svg t="1602589910582" class="icon" viewBox="0 0 1024 1024" version="1.1" xmlns="http://www.w3.org/2000/svg" p-id="9736" xmlns:xlink="http://www.w3.org/1999/xlink" width="200" height="200"><defs><style type="text/css"></style></defs><path d="M363.213861 113.019209a105.65133 97.87788 90 1 0 195.75576 0 105.65133 97.87788 90 1 0-195.75576 0Z" fill="#FFE5A5" p-id="9737"></path><path d="M553.764789 544.209123V383.535283c0-90.712786-46.775893-164.932339-103.96145-164.932339S345.841889 292.822497 345.841889 383.535283v160.67384z" fill="#FDC157" p-id="9738"></path><path d="M345.841889 544.209123h207.9229v19.737804H345.841889z" fill="#E9C057" p-id="9739"></path><path d="M345.841889 563.946927h207.9229v321.888442s1.825071 125.051158-48.060202 122.550135c0 0-12.30233-113.1544-25.348208-258.55172C468.256834 614.778533 453.994243 621.876031 449.803339 622.214008s-32.378111 11.761568-32.783682 102.203973c-0.540762 111.667305-7.570665 198.594759-11.829164 202.785663-8.854974 8.854974-35.622681 20.278566-47.316654 16.087662S345.841889 563.946927 345.841889 563.946927z" fill="#2E337E" p-id="9740"></path><path d="M355.913577 938.492046a39.408014 18.183114 0 1 0 78.816028 0 39.408014 18.183114 0 1 0-78.816028 0Z" fill="#24272C" p-id="9741"></path><path d="M505.636991 1005.816886a37.650538 18.183114 0 1 0 75.301076 0 37.650538 18.183114 0 1 0-75.301076 0Z" fill="#24272C" p-id="9742"></path><path d="M512.193728 316.345633h32.986468s16.087663 85.372764 62.525579 92.132286c0 0 36.63661 0 51.237177-19.399828 0 0 41.706251-2.838999 2.230643 27.57885s-93.48419 23.928708-112.546043-5.407618-54.752129-86.183907-36.433824-94.90369z" fill="#FFE4A3" p-id="9743"></path><path d="M580.32971 1.013928s-41.706251 18.723876-141.949963 0-113.762757 235.974916 37.177371 216.304707c0 0-59.956961-49.344511-17.709948-90.510001C457.779575 126.538253 574.381331 114.911875 580.32971 1.013928z" fill="#28201E" p-id="9744"></path></svg>